# File created by Blade
# Date/Time:  Wed Jan 21 16:14:13 2015
# Frame Rate: 120.000 fps
#------------------------------------------------------
:FULLY-SPECIFIED
:DEGREES
692
root 18.470348 35.505305 -20.305671 -170.976539 -5.749965 -179.501706
Spine -19.738123 0.130351 1.380814
Head 9.533259 -2.416397 -2.082137
LeftShoulder -9.274841 -34.042294 17.361409
LeftArm 9.429628 10.935198 -8.815788
LeftForeArm 11.997982 -0.000000 -2.635140
LeftHand -10.293325 -0.000000 -4.666972
LeftHandThumb1 -26.253704 0.000000 33.147579
RightShoulder -10.272243 -1.558050 -11.561242
RightArm 10.411852 39.377295 11.906031
RightForeArm -35.067569 -0.000000 2.735609
RightHand -4.427902 -0.000000 10.038831
RightHandThumb1 -24.326973 -0.000000 -32.862282
LeftUpLeg -1.533726 5.742695 -0.157128
LeftLeg -5.200662 -0.000000 0.000000
LeftFoot -21.161286 24.388339 -12.203847
LeftToeBase 27.250079 -0.000000 -0.000000
RightUpLeg -1.369726 -8.947856 1.654690
RightLeg -3.358620 -0.000000 0.000000
RightFoot -22.400164 -29.141402 14.360812
RightToeBase 23.658946 -0.000000 -0.000000
693
root 18.469118 35.504961 -20.308980 -170.972432 -5.752952 -179.505878
Spine -19.750980 0.133306 1.392633
Head 9.541718 -2.413195 -2.080864
LeftShoulder -9.269552 -34.040332 17.355207
LeftArm 9.425758 10.941876 -8.818567
LeftForeArm 11.978928 -0.000000 -2.634951
LeftHand -10.291862 -0.000000 -4.641200
LeftHandThumb1 -26.253704 0.000000 33.147579
RightShoulder -10.271465 -1.559564 -11.561564
RightArm 10.404178 39.350760 11.892406
RightForeArm -35.141221 -0.000000 2.750447
RightHand -4.449680 -0.000000 10.044769
RightHandThumb1 -24.326973 -0.000000 -32.862282
LeftUpLeg -1.525518 5.733426 -0.159943
LeftLeg -5.211048 -0.000000 0.000000
LeftFoot -21.140649 24.394943 -12.176662
LeftToeBase 27.237017 -0.000000 -0.000000
RightUpLeg -1.362589 -8.934429 1.648187
RightLeg -3.366912 -0.000000 0.000000
RightFoot -22.404109 -29.157590 14.363196
RightToeBase 23.665512 -0.000000 -0.000000
694
root 18.468687 35.504822 -20.312272 -170.968481 -5.749596 -179.507025
Spine -19.762270 0.137574 1.406200
Head 9.546162 -2.419590 -2.091573
LeftShoulder -9.265407 -34.056066 17.356555
LeftArm 9.409305 10.966678 -8.822881
LeftForeArm 11.975971 -0.000000 -2.627253
LeftHand -10.309715 -0.000000 -4.622726
LeftHandThumb1 -26.253704 0.000000 33.147579
RightShoulder -10.264662 -1.602957 -11.558698
RightArm 10.400683 39.331027 11.884401
RightForeArm -35.165721 0.000000 2.757797
RightHand -4.454496 0.000000 10.059592
RightHandThumb1 -24.326973 -0.000000 -32.862282
LeftUpLeg -1.520320 5.743987 -0.160580
LeftLeg -5.217844 -0.000000 0.000000
LeftFoot -21.144110 24.372520 -12.185696
LeftToeBase 27.263695 -0.000000 -0.000000
RightUpLeg -1.359974 -8.944303 1.648935
RightLeg -3.369342 -0.000000 0.000000
RightFoot -22.413231 -29.140939 14.448721
RightToeBase 23.481790 -0.000000 -0.000000
695
root 18.467795 35.504603 -20.315304 -170.965736 -5.749575 -179.509934
Spine -19.769712 0.139253 1.419848
Head 9.545766 -2.427273 -2.096998
LeftShoulder -9.259516 -34.063445 17.348647
LeftArm 9.395011 10.995281 -8.816028
LeftForeArm 11.976120 0.000000 -2.609651
LeftHand -10.312622 -0.000000 -4.614867
LeftHandThumb1 -26.253704 0.000000 33.147579
RightShoulder -10.264644 -1.619924 -11.561883
RightArm 10.406932 39.311515 11.885855
RightForeArm -35.208493 0.000000 2.757641
RightHand -4.460104 -0.000000 10.029044
RightHandThumb1 -24.326973 -0.000000 -32.862282
LeftUpLeg -1.516487 5.745235 -0.164452
LeftLeg -5.219625 -0.000000 0.000000
LeftFoot -21.156661 24.371452 -12.209795
LeftToeBase 27.195799 -0.000000 -0.000000
RightUpLeg -1.357930 -8.936149 1.644504
RightLeg -3.370333 -0.000000 0.000000
RightFoot -22.412970 -29.168364 14.372400
RightToeBase 23.655432 -0.000000 -0.000000
696
root 18.466864 35.504362 -20.318549 -170.962188 -5.749493 -179.513141
Spine -19.783958 0.141219 1.432037
Head 9.540274 -2.439615 -2.118729
LeftShoulder -9.244117 -34.047875 17.335674
LeftArm 9.385495 11.025368 -8.806962
LeftForeArm 11.962005 0.000000 -2.598780
LeftHand -10.324732 -0.000000 -4.652737
LeftHandThumb1 -26.253704 0.000000 33.147579
RightShoulder -10.261690 -1.650798 -11.557313
RightArm 10.421214 39.333155 11.888220
RightForeArm -35.316451 -0.000000 2.763510
RightHand -4.459030 -0.000000 10.061370
RightHandThumb1 -24.326973 -0.000000 -32.862282
LeftUpLeg -1.513982 5.754699 -0.168386
LeftLeg -5.219567 -0.000000 0.000000
LeftFoot -21.144487 24.365066 -12.182477
LeftToeBase 27.220893 -0.000000 -0.000000
RightUpLeg -1.349511 -8.936472 1.639015
RightLeg -3.381565 -0.000000 0.000000
RightFoot -22.401826 -29.159076 14.347984
RightToeBase 23.620500 -0.000000 -0.000000
697
root 18.466727 35.503934 -20.321415 -170.959843 -5.748961 -179.515585
Spine -19.790461 0.147029 1.440553
Head 9.542620 -2.443208 -2.127854
LeftShoulder -9.230419 -34.038545 17.329010
LeftArm 9.373665 11.031815 -8.804086
LeftForeArm 11.975369 -0.000000 -2.578882
LeftHand -10.313601 0.000000 -4.663335
LeftHandThumb1 -26.253704 0.000000 33.147579
RightShoulder -10.260351 -1.641468 -11.554499
RightArm 10.389112 39.206842 11.844373
RightForeArm -35.282162 -0.000000 2.782890
RightHand -4.453874 -0.000000 10.112392
RightHandThumb1 -24.326973 -0.000000 -32.862282
LeftUpLeg -1.509017 5.748797 -0.169068
LeftLeg -5.225014 -0.000000 0.000000
LeftFoot -21.165729 24.354697 -12.212614
LeftToeBase 27.281649 -0.000000 -0.000000
RightUpLeg -1.349251 -8.917324 1.636837
RightLeg -3.376823 -0.000000 0.000000
RightFoot -22.425569 -29.180143 14.370852
RightToeBase 23.620632 -0.000000 -0.000000
698
root 18.466434 35.503897 -20.325086 -170.964222 -5.755292 -179.515376
Spine -19.794905 0.150269 1.452469
Head 9.549931 -2.465113 -2.132758
LeftShoulder -9.197300 -34.056406 17.315164
LeftArm 9.341707 11.092847 -8.795708
LeftForeArm 11.976759 -0.000000 -2.558600
LeftHand -10.292946 -0.000000 -4.664398
LeftHandThumb1 -26.253704 0.000000 33.147579
RightShoulder -10.251758 -1.685887 -11.546405
RightArm 10.367238 39.174358 11.814950
RightForeArm -35.289796 -0.000000 2.783006
RightHand -4.440319 -0.000000 10.129495
RightHandThumb1 -24.326973 -0.000000 -32.862282
LeftUpLeg -1.501528 5.769369 -0.168781
LeftLeg -5.225156 -0.000000 0.000000
LeftFoot -21.144951 24.349473 -12.201450
LeftToeBase 27.011522 -0.000000 -0.000000
RightUpLeg -1.336836 -8.933096 1.637128
RightLeg -3.379923 -0.000000 0.000000
RightFoot -22.421310 -29.179793 14.366665
RightToeBase 23.647541 -0.000000 -0.000000
699
root 18.465856 35.503538 -20.327844 -170.967305 -5.760290 -179.516689
Spine -19.795445 0.151931 1.465790
Head 9.564404 -2.456577 -2.136518
LeftShoulder -9.177887 -34.062100 17.310799
LeftArm 9.321430 11.108734 -8.802234
LeftForeArm 11.999813 -0.000000 -2.558102
LeftHand -10.274002 -0.000000 -4.628812
LeftHandThumb1 -26.253704 0.000000 33.147579
RightShoulder -10.249516 -1.685786 -11.552243
RightArm 10.349882 39.083571 11.798024
RightForeArm -35.282720 -0.000000 2.788757
RightHand -4.440636 -0.000000 10.113051
RightHandThumb1 -24.326973 -0.000000 -32.862282
LeftUpLeg -1.486754 5.729554 -0.166790
LeftLeg -5.233326 -0.000000 0.000000
LeftFoot -21.158523 24.368587 -12.204360
LeftToeBase 27.244689 -0.000000 -0.000000
RightUpLeg -1.326934 -8.934699 1.634337
RightLeg -3.382711 -0.000000 0.000000
RightFoot -22.420554 -29.179247 14.362974
RightToeBase 23.641429 -0.000000 -0.000000
700
root 18.465670 35.503571 -20.331313 -170.970200 -5.770670 -179.520521
Spine -19.790679 0.145653 1.475573
Head 9.579480 -2.422265 -2.119801
LeftShoulder -9.168302 -34.075518 17.301147
LeftArm 9.311586 11.154325 -8.786791
LeftForeArm 11.993082 -0.000000 -2.553113
LeftHand -10.252707 -0.000000 -4.638018
LeftHandThumb1 -26.253704 0.000000 33.147579
RightShoulder -10.254105 -1.631789 -11.556302
RightArm 10.329452 38.937387 11.767151
RightForeArm -35.255936 -0.000000 2.782717
RightHand -4.433446 -0.000000 10.100802
RightHandThumb1 -24.326973 -0.000000 -32.862282
LeftUpLeg -1.484702 5.726514 -0.169384
LeftLeg -5.223421 -0.000000 0.000000
LeftFoot -21.160321 24.369293 -12.207250
LeftToeBase 27.233847 -0.000000 -0.000000
RightUpLeg -1.310766 -8.935939 1.629829
RightLeg -3.392706 -0.000000 0.000000
RightFoot -22.433832 -29.173105 14.382616
RightToeBase 23.630571 -0.000000 -0.000000
701
root 18.465744 35.503566 -20.334305 -170.973221 -5.767553 -179.520739
Spine -19.791109 0.145816 1.487232
Head 9.591048 -2.411078 -2.110033
LeftShoulder -9.164363 -34.070297 17.312137
LeftArm 9.293706 11.145428 -8.804081
LeftForeArm 11.996523 -0.000000 -2.546511
LeftHand -10.255677 -0.000000 -4.625688
LeftHandThumb1 -26.253704 0.000000 33.147579
RightShoulder -10.255364 -1.693497 -11.552803
RightArm 10.376896 39.006581 11.817461
RightForeArm -35.318741 -0.000000 2.768528
RightHand -4.406719 -0.000000 10.093331
RightHandThumb1 -24.326973 -0.000000 -32.862282
LeftUpLeg -1.476376 5.752602 -0.171023
LeftLeg -5.230279 -0.000000 0.000000
LeftFoot -21.154300 24.360730 -12.216279
LeftToeBase 27.009957 -0.000000 -0.000000
RightUpLeg -1.308311 -8.934623 1.628255
RightLeg -3.383782 -0.000000 0.000000
RightFoot -22.438831 -29.177857 14.382401
RightToeBase 23.647439 -0.000000 -0.000000
